<svg xmlns="http://www.w3.org/2000/svg" fill="none" viewBox="0 0 176 300"><g clip-path="url(#a)"><mask id="b" width="176" height="300" x="0" y="0" maskUnits="userSpaceOnUse" style="mask-type:alpha"><path fill="#000" d="M0 26.182C0 11.722 11.722 0 26.182 0h123.273c14.459 0 26.181 11.722 26.181 26.182v247.636c0 14.46-11.722 26.182-26.181 26.182H26.182C11.722 300 0 288.278 0 273.818z"/></mask><g mask="url(#b)"><path fill="#000" d="M175.637 273.818a26.06 26.06 0 0 1-5.166 15.616l-27.562-27.562v-96.054l12.414-12h20.314zM170.642 10.8a26.06 26.06 0 0 1 4.995 15.382v120h-20.314l-12.414-12V38.534z"/></g></g><defs><clipPath id="a"><path fill="#fff" d="M0 0h175.64v300H0z"/></clipPath></defs></svg>